# xmcd
#
# Track frame offsets:
#	150
#	16330
#	33014
#	48644
#	62361
#	75709
#	90245
#	102867
#	116230
#	130031
#	146703
#	160445
#	173565
#	188657
#	204167
#	220598
#
# Disc length: 3115 seconds
#
# Revision: 0
# Processed by: cddbd v1.5.2PL0 Copyright (c) Steve Scherf et al.
# Submitted via: audiograbber 1.83.01
#
DISCID=c70c2910
DTITLE=Alpen DJ - Die Power der Berge - CD1
DYEAR=2001
DGENRE=Alpen-Pop
TTITLE0=Schürzenjäger - Lass raus!
TTITLE1=Klostertaler - Es geht uns gut
TTITLE2=Trenkwalder - Bumm Bumm
TTITLE3=Alpenrebellen - Feiern ist ein Hammer
TTITLE4=Zellberg Buam and Die Edlseer - Edlziller Party-Knüller
TTITLE5=Seer - Juche
TTITLE6=Die Stoakogler - Alles lo lo - locker
TTITLE7=Didi Diesel - Wir geben noch lange nicht auf
TTITLE8=@lpin AG - Auf'm Gletscher schmilzt das Eis
TTITLE9=Leo Roos - Red net - sondern tu's
TTITLE10=John Otti Band - La Ola Ole
TTITLE11=Florian and Florian - Heute tanzt bei uns der Bär
TTITLE12=Jojo's - Der Rotwein wird mein Tod sein
TTITLE13=Egger - Gemma's an
TTITLE14=Münchner Zwietracht feat. R. Mooshammer - Moos hamma
TTITLE15=Helmut aus Mallorca - Aufi und obi
EXTD=
EXTT0=
EXTT1=
EXTT2=
EXTT3=
EXTT4=
EXTT5=
EXTT6=
EXTT7=
EXTT8=
EXTT9=
EXTT10=
EXTT11=
EXTT12=
EXTT13=
EXTT14=
EXTT15=
PLAYORDER=
